# xmcd
#
# Track frame offsets:
#	150
#	11697
#	23834
#	36829
#	57256
#	71511
#	92062
#	111889
#	125645
#	134670
#	150046
#	161201
#	173646
#	186100
#
# Disc length: 2750 seconds
#
# Revision: 1
# Processed by: cddbd v1.5.2PL0 Copyright (c) Steve Scherf et al.
# Submitted via: audiograbber 1.83.01
#
DISCID=b70abc0e
DTITLE=J Shogren - Jahamericana
DYEAR=2007
DGENRE=Country
TTITLE0=Don´t Worry
TTITLE1=Lovers Lane Boogie
TTITLE2=It´s All Good
TTITLE3=Me and Genghis Khan
TTITLE4=Drinking
TTITLE5=As Good As I Been To You
TTITLE6=Opposite
TTITLE7=Thunderstorm
TTITLE8=Shuffletown
TTITLE9=Outsider
TTITLE10=Good Enough
TTITLE11=Hybobound
TTITLE12=Helgagatan
TTITLE13=Wooden Saints
EXTD=
EXTT0=
EXTT1=
EXTT2=
EXTT3=
EXTT4=
EXTT5=
EXTT6=
EXTT7=
EXTT8=
EXTT9=
EXTT10=
EXTT11=
EXTT12=
EXTT13=
PLAYORDER=
